<?xml version="1.0" encoding="UTF-8" standalone="no"?><svg xmlns="http://www.w3.org/2000/svg" xmlns:xlink="http://www.w3.org/1999/xlink" contentStyleType="text/css" height="976px" preserveAspectRatio="none" style="width:1042px;height:976px;background:#FFFFFF;" version="1.1" viewBox="0 0 1042 976" width="1042px" zoomAndPan="magnify"><defs/><g><g id="elem_GeaflowFieldType"><rect codeLine="2" fill="#FFA500" height="129.4844" id="GeaflowFieldType" rx="2.5" ry="2.5" style="stroke:#181818;stroke-width:0.5;" width="153" x="429" y="23.5"/><ellipse cx="444" cy="39.5" fill="#EB937F" rx="11" ry="11" style="stroke:#181818;stroke-width:1.0;"/><path d="M448.1094,45.5 L440.3906,45.5 L440.3906,33.1094 L448.1094,33.1094 L448.1094,35.2656 L442.8438,35.2656 L442.8438,37.9375 L447.6094,37.9375 L447.6094,40.0938 L442.8438,40.0938 L442.8438,43.3438 L448.1094,43.3438 L448.1094,45.5 Z " fill="#000000"/><text fill="#000000" font-family="sans-serif" font-size="14" lengthAdjust="spacing" textLength="121" x="458" y="44.3467">GeaflowFieldType</text><line style="stroke:#181818;stroke-width:0.5;" x1="430" x2="581" y1="55.5" y2="55.5"/><ellipse cx="440" cy="69.1484" fill="none" rx="3" ry="3" style="stroke:#038048;stroke-width:1.0;"/><text fill="#000000" font-family="sans-serif" font-size="14" lengthAdjust="spacing" textLength="67" x="449" y="72.4951">BOOLEAN</text><ellipse cx="440" cy="85.4453" fill="none" rx="3" ry="3" style="stroke:#038048;stroke-width:1.0;"/><text fill="#000000" font-family="sans-serif" font-size="14" lengthAdjust="spacing" textLength="39" x="449" y="88.792">LONG</text><ellipse cx="440" cy="101.7422" fill="none" rx="3" ry="3" style="stroke:#038048;stroke-width:1.0;"/><text fill="#000000" font-family="sans-serif" font-size="14" lengthAdjust="spacing" textLength="61" x="449" y="105.0889">DECIMAL</text><ellipse cx="440" cy="118.0391" fill="none" rx="3" ry="3" style="stroke:#038048;stroke-width:1.0;"/><text fill="#000000" font-family="sans-serif" font-size="14" lengthAdjust="spacing" textLength="52" x="449" y="121.3857">STRING</text><ellipse cx="440" cy="134.3359" fill="none" rx="3" ry="3" style="stroke:#038048;stroke-width:1.0;"/><text fill="#000000" font-family="sans-serif" font-size="14" lengthAdjust="spacing" textLength="71" x="449" y="137.6826">DATETIME</text><line style="stroke:#181818;stroke-width:0.5;" x1="430" x2="581" y1="144.9844" y2="144.9844"/></g><g id="elem_GeaflowFieldConstraint"><rect codeLine="10" fill="#FFA500" height="162.0781" id="GeaflowFieldConstraint" rx="2.5" ry="2.5" style="stroke:#181818;stroke-width:0.5;" width="190" x="203.5" y="7"/><ellipse cx="218.5" cy="23" fill="#EB937F" rx="11" ry="11" style="stroke:#181818;stroke-width:1.0;"/><path d="M222.6094,29 L214.8906,29 L214.8906,16.6094 L222.6094,16.6094 L222.6094,18.7656 L217.3438,18.7656 L217.3438,21.4375 L222.1094,21.4375 L222.1094,23.5938 L217.3438,23.5938 L217.3438,26.8438 L222.6094,26.8438 L222.6094,29 Z " fill="#000000"/><text fill="#000000" font-family="sans-serif" font-size="14" lengthAdjust="spacing" textLength="158" x="232.5" y="27.8467">GeaflowFieldConstraint</text><line style="stroke:#181818;stroke-width:0.5;" x1="204.5" x2="392.5" y1="39" y2="39"/><ellipse cx="214.5" cy="52.6484" fill="none" rx="3" ry="3" style="stroke:#038048;stroke-width:1.0;"/><text fill="#000000" font-family="sans-serif" font-size="14" lengthAdjust="spacing" textLength="40" x="223.5" y="55.9951">NONE</text><ellipse cx="214.5" cy="68.9453" fill="none" rx="3" ry="3" style="stroke:#038048;stroke-width:1.0;"/><text fill="#000000" font-family="sans-serif" font-size="14" lengthAdjust="spacing" textLength="76" x="223.5" y="72.292">VERTEX_ID</text><ellipse cx="214.5" cy="85.2422" fill="none" rx="3" ry="3" style="stroke:#038048;stroke-width:1.0;"/><text fill="#000000" font-family="sans-serif" font-size="14" lengthAdjust="spacing" textLength="104" x="223.5" y="88.5889">VERTEX_LABEL</text><ellipse cx="214.5" cy="101.5391" fill="none" rx="3" ry="3" style="stroke:#038048;stroke-width:1.0;"/><text fill="#000000" font-family="sans-serif" font-size="14" lengthAdjust="spacing" textLength="127" x="223.5" y="104.8857">EDGE_SOURCE_ID</text><ellipse cx="214.5" cy="117.8359" fill="none" rx="3" ry="3" style="stroke:#038048;stroke-width:1.0;"/><text fill="#000000" font-family="sans-serif" font-size="14" lengthAdjust="spacing" textLength="125" x="223.5" y="121.1826">EDGE_TARGET_ID</text><ellipse cx="214.5" cy="134.1328" fill="none" rx="3" ry="3" style="stroke:#038048;stroke-width:1.0;"/><text fill="#000000" font-family="sans-serif" font-size="14" lengthAdjust="spacing" textLength="89" x="223.5" y="137.4795">EDGE_LABEL</text><ellipse cx="214.5" cy="150.4297" fill="none" rx="3" ry="3" style="stroke:#038048;stroke-width:1.0;"/><text fill="#000000" font-family="sans-serif" font-size="14" lengthAdjust="spacing" textLength="128" x="223.5" y="153.7764">EDGE_TIMESTAMP</text><line style="stroke:#181818;stroke-width:0.5;" x1="204.5" x2="392.5" y1="161.0781" y2="161.0781"/></g><g id="elem_GeaflowStructType"><rect codeLine="20" fill="#FFA500" height="96.8906" id="GeaflowStructType" rx="2.5" ry="2.5" style="stroke:#181818;stroke-width:0.5;" width="162" x="466.5" y="229"/><ellipse cx="481.5" cy="245" fill="#EB937F" rx="11" ry="11" style="stroke:#181818;stroke-width:1.0;"/><path d="M485.6094,251 L477.8906,251 L477.8906,238.6094 L485.6094,238.6094 L485.6094,240.7656 L480.3438,240.7656 L480.3438,243.4375 L485.1094,243.4375 L485.1094,245.5938 L480.3438,245.5938 L480.3438,248.8438 L485.6094,248.8438 L485.6094,251 Z " fill="#000000"/><text fill="#000000" font-family="sans-serif" font-size="14" lengthAdjust="spacing" textLength="130" x="495.5" y="249.8467">GeaflowStructType</text><line style="stroke:#181818;stroke-width:0.5;" x1="467.5" x2="627.5" y1="261" y2="261"/><text fill="#000000" font-family="sans-serif" font-size="14" lengthAdjust="spacing" textLength="48" x="472.5" y="277.9951">TABLE,</text><text fill="#000000" font-family="sans-serif" font-size="14" lengthAdjust="spacing" textLength="59" x="472.5" y="294.292">VERTEX,</text><text fill="#000000" font-family="sans-serif" font-size="14" lengthAdjust="spacing" textLength="40" x="472.5" y="310.5889">EDGE</text><line style="stroke:#181818;stroke-width:0.5;" x1="467.5" x2="627.5" y1="317.8906" y2="317.8906"/></g><g id="elem_GeaflowEdgeDirection"><rect codeLine="26" fill="#FFA500" height="96.8906" id="GeaflowEdgeDirection" rx="2.5" ry="2.5" style="stroke:#181818;stroke-width:0.5;" width="185" x="36" y="386"/><ellipse cx="51" cy="402" fill="#EB937F" rx="11" ry="11" style="stroke:#181818;stroke-width:1.0;"/><path d="M55.1094,408 L47.3906,408 L47.3906,395.6094 L55.1094,395.6094 L55.1094,397.7656 L49.8438,397.7656 L49.8438,400.4375 L54.6094,400.4375 L54.6094,402.5938 L49.8438,402.5938 L49.8438,405.8438 L55.1094,405.8438 L55.1094,408 Z " fill="#000000"/><text fill="#000000" font-family="sans-serif" font-size="14" lengthAdjust="spacing" textLength="153" x="65" y="406.8467">GeaflowEdgeDirection</text><line style="stroke:#181818;stroke-width:0.5;" x1="37" x2="220" y1="418" y2="418"/><ellipse cx="47" cy="431.6484" fill="none" rx="3" ry="3" style="stroke:#038048;stroke-width:1.0;"/><text fill="#000000" font-family="sans-serif" font-size="14" lengthAdjust="spacing" textLength="30" x="56" y="434.9951">OUT</text><ellipse cx="47" cy="447.9453" fill="none" rx="3" ry="3" style="stroke:#038048;stroke-width:1.0;"/><text fill="#000000" font-family="sans-serif" font-size="14" lengthAdjust="spacing" textLength="13" x="56" y="451.292">IN</text><ellipse cx="47" cy="464.2422" fill="none" rx="3" ry="3" style="stroke:#038048;stroke-width:1.0;"/><text fill="#000000" font-family="sans-serif" font-size="14" lengthAdjust="spacing" textLength="40" x="56" y="467.5889">BOTH</text><line style="stroke:#181818;stroke-width:0.5;" x1="37" x2="220" y1="474.8906" y2="474.8906"/></g><g id="elem_GeaflowField"><rect codeLine="33" fill="#F1F1F1" height="80.5938" id="GeaflowField" rx="2.5" ry="2.5" style="stroke:#181818;stroke-width:0.5;" width="257" x="174" y="237"/><ellipse cx="254.75" cy="253" fill="#ADD1B2" rx="11" ry="11" style="stroke:#181818;stroke-width:1.0;"/><path d="M257.7188,258.6406 Q257.1406,258.9375 256.5,259.0781 Q255.8594,259.2344 255.1563,259.2344 Q252.6563,259.2344 251.3281,257.5938 Q250.0156,255.9375 250.0156,252.8125 Q250.0156,249.6875 251.3281,248.0313 Q252.6563,246.375 255.1563,246.375 Q255.8594,246.375 256.5,246.5313 Q257.1563,246.6875 257.7188,246.9844 L257.7188,249.7031 Q257.0938,249.125 256.5,248.8594 Q255.9063,248.5781 255.2813,248.5781 Q253.9375,248.5781 253.25,249.6563 Q252.5625,250.7188 252.5625,252.8125 Q252.5625,254.9063 253.25,255.9844 Q253.9375,257.0469 255.2813,257.0469 Q255.9063,257.0469 256.5,256.7813 Q257.0938,256.5 257.7188,255.9219 L257.7188,258.6406 Z " fill="#000000"/><text fill="#000000" font-family="sans-serif" font-size="14" lengthAdjust="spacing" textLength="87" x="275.25" y="257.8467">GeaflowField</text><line style="stroke:#181818;stroke-width:0.5;" x1="175" x2="430" y1="269" y2="269"/><rect fill="none" height="6" style="stroke:#C82930;stroke-width:1.0;" width="6" x="182" y="279.6484"/><text fill="#000000" font-family="sans-serif" font-size="14" lengthAdjust="spacing" textLength="155" x="194" y="285.9951">GeaflowFieldType type</text><rect fill="none" height="6" style="stroke:#C82930;stroke-width:1.0;" width="6" x="182" y="295.9453"/><text fill="#000000" font-family="sans-serif" font-size="14" lengthAdjust="spacing" textLength="231" x="194" y="302.292">GeaflowFieldConstraint constraint</text><line style="stroke:#181818;stroke-width:0.5;" x1="175" x2="430" y1="309.5938" y2="309.5938"/></g><g id="elem_GeaflowName"><rect codeLine="38" fill="#F1F1F1" height="96.8906" id="GeaflowName" rx="2.5" ry="2.5" style="stroke:#181818;stroke-width:0.5;" width="136" x="650.5" y="39.5"/><ellipse cx="669.55" cy="55.5" fill="#A9DCDF" rx="11" ry="11" style="stroke:#181818;stroke-width:1.0;"/><path d="M669.6594,50.8438 L668.5031,55.9219 L670.8313,55.9219 L669.6594,50.8438 Z M668.175,48.6094 L671.1594,48.6094 L674.5188,61 L672.0656,61 L671.3,57.9375 L668.0188,57.9375 L667.2688,61 L664.8313,61 L668.175,48.6094 Z " fill="#000000"/><text fill="#000000" font-family="sans-serif" font-size="14" font-style="italic" lengthAdjust="spacing" textLength="95" x="684.45" y="60.3467">GeaflowName</text><line style="stroke:#181818;stroke-width:0.5;" x1="651.5" x2="785.5" y1="71.5" y2="71.5"/><polygon fill="none" points="661.5,80.1484,665.5,84.1484,661.5,88.1484,657.5,84.1484" style="stroke:#B38D22;stroke-width:1.0;"/><text fill="#000000" font-family="sans-serif" font-size="14" lengthAdjust="spacing" textLength="74" x="670.5" y="88.4951">String guid</text><polygon fill="none" points="661.5,96.4453,665.5,100.4453,661.5,104.4453,657.5,100.4453" style="stroke:#B38D22;stroke-width:1.0;"/><text fill="#000000" font-family="sans-serif" font-size="14" lengthAdjust="spacing" textLength="83" x="670.5" y="104.792">String name</text><polygon fill="none" points="661.5,112.7422,665.5,116.7422,661.5,120.7422,657.5,116.7422" style="stroke:#B38D22;stroke-width:1.0;"/><text fill="#000000" font-family="sans-serif" font-size="14" lengthAdjust="spacing" textLength="110" x="670.5" y="121.0889">String comment</text><line style="stroke:#181818;stroke-width:0.5;" x1="651.5" x2="785.5" y1="128.3906" y2="128.3906"/></g><g id="elem_GeaflowStruct"><rect codeLine="44" fill="#F1F1F1" height="80.5938" id="GeaflowStruct" rx="2.5" ry="2.5" style="stroke:#181818;stroke-width:0.5;" width="200" x="351.5" y="394"/><ellipse cx="399.25" cy="410" fill="#A9DCDF" rx="11" ry="11" style="stroke:#181818;stroke-width:1.0;"/><path d="M399.3594,405.3438 L398.2031,410.4219 L400.5313,410.4219 L399.3594,405.3438 Z M397.875,403.1094 L400.8594,403.1094 L404.2188,415.5 L401.7656,415.5 L401,412.4375 L397.7188,412.4375 L396.9688,415.5 L394.5313,415.5 L397.875,403.1094 Z " fill="#000000"/><text fill="#000000" font-family="sans-serif" font-size="14" font-style="italic" lengthAdjust="spacing" textLength="96" x="419.75" y="414.8467">GeaflowStruct</text><line style="stroke:#181818;stroke-width:0.5;" x1="352.5" x2="550.5" y1="426" y2="426"/><polygon fill="none" points="362.5,434.6484,366.5,438.6484,362.5,442.6484,358.5,438.6484" style="stroke:#B38D22;stroke-width:1.0;"/><text fill="#000000" font-family="sans-serif" font-size="14" lengthAdjust="spacing" textLength="174" x="371.5" y="442.9951">List&lt;GeaflowField&gt; fields</text><polygon fill="none" points="362.5,450.9453,366.5,454.9453,362.5,458.9453,358.5,454.9453" style="stroke:#B38D22;stroke-width:1.0;"/><text fill="#000000" font-family="sans-serif" font-size="14" lengthAdjust="spacing" textLength="130" x="371.5" y="459.292">GeaflowStructType</text><line style="stroke:#181818;stroke-width:0.5;" x1="352.5" x2="550.5" y1="466.5938" y2="466.5938"/></g><g id="elem_GeaflowGraph"><rect codeLine="50" fill="#90EE90" height="113.1875" id="GeaflowGraph" rx="2.5" ry="2.5" style="stroke:#181818;stroke-width:0.5;" width="264" x="203.5" y="700"/><ellipse cx="282.75" cy="716" fill="#ADD1B2" rx="11" ry="11" style="stroke:#181818;stroke-width:1.0;"/><path d="M285.7188,721.6406 Q285.1406,721.9375 284.5,722.0781 Q283.8594,722.2344 283.1563,722.2344 Q280.6563,722.2344 279.3281,720.5938 Q278.0156,718.9375 278.0156,715.8125 Q278.0156,712.6875 279.3281,711.0313 Q280.6563,709.375 283.1563,709.375 Q283.8594,709.375 284.5,709.5313 Q285.1563,709.6875 285.7188,709.9844 L285.7188,712.7031 Q285.0938,712.125 284.5,711.8594 Q283.9063,711.5781 283.2813,711.5781 Q281.9375,711.5781 281.25,712.6563 Q280.5625,713.7188 280.5625,715.8125 Q280.5625,717.9063 281.25,718.9844 Q281.9375,720.0469 283.2813,720.0469 Q283.9063,720.0469 284.5,719.7813 Q285.0938,719.5 285.7188,718.9219 L285.7188,721.6406 Z " fill="#000000"/><text fill="#000000" font-family="sans-serif" font-size="14" lengthAdjust="spacing" textLength="97" x="303.25" y="720.8467">GeaflowGraph</text><line style="stroke:#181818;stroke-width:0.5;" x1="204.5" x2="466.5" y1="732" y2="732"/><rect fill="none" height="6" style="stroke:#C82930;stroke-width:1.0;" width="6" x="211.5" y="742.6484"/><text fill="#000000" font-family="sans-serif" font-size="14" lengthAdjust="spacing" textLength="204" x="223.5" y="748.9951">List&lt;GeaflowVertex&gt; vertices</text><rect fill="none" height="6" style="stroke:#C82930;stroke-width:1.0;" width="6" x="211.5" y="758.9453"/><text fill="#000000" font-family="sans-serif" font-size="14" lengthAdjust="spacing" textLength="186" x="223.5" y="765.292">List&lt;GeaflowEdge&gt; edges</text><rect fill="none" height="6" style="stroke:#C82930;stroke-width:1.0;" width="6" x="211.5" y="775.2422"/><text fill="#000000" font-family="sans-serif" font-size="14" lengthAdjust="spacing" textLength="238" x="223.5" y="781.5889">List&lt;GeaflowEndpoint&gt; endpoints</text><line style="stroke:#181818;stroke-width:1.0;" x1="204.5" x2="466.5" y1="788.8906" y2="788.8906"/><rect fill="none" height="6" style="stroke:#C82930;stroke-width:1.0;" width="6" x="211.5" y="799.5391"/><text fill="#000000" font-family="sans-serif" font-size="14" lengthAdjust="spacing" textLength="231" x="223.5" y="805.8857">GeaflowPluginConfig pluginConfig</text></g><g id="elem_GeaflowVertex"><rect codeLine="59" fill="#90EE90" height="48" id="GeaflowVertex" rx="2.5" ry="2.5" style="stroke:#181818;stroke-width:0.5;" width="131" x="285" y="567.5"/><ellipse cx="300" cy="583.5" fill="#ADD1B2" rx="11" ry="11" style="stroke:#181818;stroke-width:1.0;"/><path d="M302.9688,589.1406 Q302.3906,589.4375 301.75,589.5781 Q301.1094,589.7344 300.4063,589.7344 Q297.9063,589.7344 296.5781,588.0938 Q295.2656,586.4375 295.2656,583.3125 Q295.2656,580.1875 296.5781,578.5313 Q297.9063,576.875 300.4063,576.875 Q301.1094,576.875 301.75,577.0313 Q302.4063,577.1875 302.9688,577.4844 L302.9688,580.2031 Q302.3438,579.625 301.75,579.3594 Q301.1563,579.0781 300.5313,579.0781 Q299.1875,579.0781 298.5,580.1563 Q297.8125,581.2188 297.8125,583.3125 Q297.8125,585.4063 298.5,586.4844 Q299.1875,587.5469 300.5313,587.5469 Q301.1563,587.5469 301.75,587.2813 Q302.3438,587 302.9688,586.4219 L302.9688,589.1406 Z " fill="#000000"/><text fill="#000000" font-family="sans-serif" font-size="14" lengthAdjust="spacing" textLength="99" x="314" y="588.3467">GeaflowVertex</text><line style="stroke:#181818;stroke-width:0.5;" x1="286" x2="415" y1="599.5" y2="599.5"/><line style="stroke:#181818;stroke-width:0.5;" x1="286" x2="415" y1="607.5" y2="607.5"/></g><g id="elem_GeaflowEdge"><rect codeLine="62" fill="#90EE90" height="96.8906" id="GeaflowEdge" rx="2.5" ry="2.5" style="stroke:#181818;stroke-width:0.5;" width="243" x="7" y="543"/><ellipse cx="78.75" cy="559" fill="#ADD1B2" rx="11" ry="11" style="stroke:#181818;stroke-width:1.0;"/><path d="M81.7188,564.6406 Q81.1406,564.9375 80.5,565.0781 Q79.8594,565.2344 79.1563,565.2344 Q76.6563,565.2344 75.3281,563.5938 Q74.0156,561.9375 74.0156,558.8125 Q74.0156,555.6875 75.3281,554.0313 Q76.6563,552.375 79.1563,552.375 Q79.8594,552.375 80.5,552.5313 Q81.1563,552.6875 81.7188,552.9844 L81.7188,555.7031 Q81.0938,555.125 80.5,554.8594 Q79.9063,554.5781 79.2813,554.5781 Q77.9375,554.5781 77.25,555.6563 Q76.5625,556.7188 76.5625,558.8125 Q76.5625,560.9063 77.25,561.9844 Q77.9375,563.0469 79.2813,563.0469 Q79.9063,563.0469 80.5,562.7813 Q81.0938,562.5 81.7188,561.9219 L81.7188,564.6406 Z " fill="#000000"/><text fill="#000000" font-family="sans-serif" font-size="14" lengthAdjust="spacing" textLength="91" x="99.25" y="563.8467">GeaflowEdge</text><line style="stroke:#181818;stroke-width:0.5;" x1="8" x2="249" y1="575" y2="575"/><rect fill="none" height="6" style="stroke:#C82930;stroke-width:1.0;" width="6" x="15" y="585.6484"/><text fill="#000000" font-family="sans-serif" font-size="14" lengthAdjust="spacing" textLength="195" x="27" y="591.9951">GeaflowVertex sourceVertex</text><rect fill="none" height="6" style="stroke:#C82930;stroke-width:1.0;" width="6" x="15" y="601.9453"/><text fill="#000000" font-family="sans-serif" font-size="14" lengthAdjust="spacing" textLength="188" x="27" y="608.292">GeaflowVertex targetVertex</text><rect fill="none" height="6" style="stroke:#C82930;stroke-width:1.0;" width="6" x="15" y="618.2422"/><text fill="#000000" font-family="sans-serif" font-size="14" lengthAdjust="spacing" textLength="217" x="27" y="624.5889">GeaflowEdgeDirection direction</text><line style="stroke:#181818;stroke-width:0.5;" x1="8" x2="249" y1="631.8906" y2="631.8906"/></g><g id="elem_GeaflowTable"><rect codeLine="68" fill="#90EE90" height="64.2969" id="GeaflowTable" rx="2.5" ry="2.5" style="stroke:#181818;stroke-width:0.5;" width="248" x="451.5" y="559.5"/><ellipse cx="524.75" cy="575.5" fill="#ADD1B2" rx="11" ry="11" style="stroke:#181818;stroke-width:1.0;"/><path d="M527.7188,581.1406 Q527.1406,581.4375 526.5,581.5781 Q525.8594,581.7344 525.1563,581.7344 Q522.6563,581.7344 521.3281,580.0938 Q520.0156,578.4375 520.0156,575.3125 Q520.0156,572.1875 521.3281,570.5313 Q522.6563,568.875 525.1563,568.875 Q525.8594,568.875 526.5,569.0313 Q527.1563,569.1875 527.7188,569.4844 L527.7188,572.2031 Q527.0938,571.625 526.5,571.3594 Q525.9063,571.0781 525.2813,571.0781 Q523.9375,571.0781 523.25,572.1563 Q522.5625,573.2188 522.5625,575.3125 Q522.5625,577.4063 523.25,578.4844 Q523.9375,579.5469 525.2813,579.5469 Q525.9063,579.5469 526.5,579.2813 Q527.0938,579 527.7188,578.4219 L527.7188,581.1406 Z " fill="#000000"/><text fill="#000000" font-family="sans-serif" font-size="14" lengthAdjust="spacing" textLength="93" x="545.25" y="580.3467">GeaflowTable</text><line style="stroke:#181818;stroke-width:0.5;" x1="452.5" x2="698.5" y1="591.5" y2="591.5"/><text fill="#000000" font-family="sans-serif" font-size="14" lengthAdjust="spacing" textLength="236" x="457.5" y="608.4951">GeaflowPluginConfig pluginConfig;</text><line style="stroke:#181818;stroke-width:0.5;" x1="452.5" x2="698.5" y1="615.7969" y2="615.7969"/></g><g id="elem_GeaflowEndpoint"><rect codeLine="71" fill="#F1F1F1" height="96.8906" id="GeaflowEndpoint" rx="2.5" ry="2.5" style="stroke:#181818;stroke-width:0.5;" width="149" x="261" y="873"/><ellipse cx="276" cy="889" fill="#ADD1B2" rx="11" ry="11" style="stroke:#181818;stroke-width:1.0;"/><path d="M278.9688,894.6406 Q278.3906,894.9375 277.75,895.0781 Q277.1094,895.2344 276.4063,895.2344 Q273.9063,895.2344 272.5781,893.5938 Q271.2656,891.9375 271.2656,888.8125 Q271.2656,885.6875 272.5781,884.0313 Q273.9063,882.375 276.4063,882.375 Q277.1094,882.375 277.75,882.5313 Q278.4063,882.6875 278.9688,882.9844 L278.9688,885.7031 Q278.3438,885.125 277.75,884.8594 Q277.1563,884.5781 276.5313,884.5781 Q275.1875,884.5781 274.5,885.6563 Q273.8125,886.7188 273.8125,888.8125 Q273.8125,890.9063 274.5,891.9844 Q275.1875,893.0469 276.5313,893.0469 Q277.1563,893.0469 277.75,892.7813 Q278.3438,892.5 278.9688,891.9219 L278.9688,894.6406 Z " fill="#000000"/><text fill="#000000" font-family="sans-serif" font-size="14" lengthAdjust="spacing" textLength="117" x="290" y="893.8467">GeaflowEndpoint</text><line style="stroke:#181818;stroke-width:0.5;" x1="262" x2="409" y1="905" y2="905"/><text fill="#000000" font-family="sans-serif" font-size="14" lengthAdjust="spacing" textLength="97" x="267" y="921.9951">String edgeId;</text><text fill="#000000" font-family="sans-serif" font-size="14" lengthAdjust="spacing" textLength="109" x="267" y="938.292">String sourceId;</text><text fill="#000000" font-family="sans-serif" font-size="14" lengthAdjust="spacing" textLength="102" x="267" y="954.5889">String targetId;</text><line style="stroke:#181818;stroke-width:0.5;" x1="262" x2="409" y1="961.8906" y2="961.8906"/></g><g id="elem_GeaflowFunction"><rect codeLine="78" fill="#90EE90" height="80.5938" id="GeaflowFunction" rx="2.5" ry="2.5" style="stroke:#181818;stroke-width:0.5;" width="229" x="806" y="237"/><ellipse cx="858.75" cy="253" fill="#ADD1B2" rx="11" ry="11" style="stroke:#181818;stroke-width:1.0;"/><path d="M861.7188,258.6406 Q861.1406,258.9375 860.5,259.0781 Q859.8594,259.2344 859.1563,259.2344 Q856.6563,259.2344 855.3281,257.5938 Q854.0156,255.9375 854.0156,252.8125 Q854.0156,249.6875 855.3281,248.0313 Q856.6563,246.375 859.1563,246.375 Q859.8594,246.375 860.5,246.5313 Q861.1563,246.6875 861.7188,246.9844 L861.7188,249.7031 Q861.0938,249.125 860.5,248.8594 Q859.9063,248.5781 859.2813,248.5781 Q857.9375,248.5781 857.25,249.6563 Q856.5625,250.7188 856.5625,252.8125 Q856.5625,254.9063 857.25,255.9844 Q857.9375,257.0469 859.2813,257.0469 Q859.9063,257.0469 860.5,256.7813 Q861.0938,256.5 861.7188,255.9219 L861.7188,258.6406 Z " fill="#000000"/><text fill="#000000" font-family="sans-serif" font-size="14" lengthAdjust="spacing" textLength="115" x="879.25" y="257.8467">GeaflowFunction</text><line style="stroke:#181818;stroke-width:0.5;" x1="807" x2="1034" y1="269" y2="269"/><text fill="#000000" font-family="sans-serif" font-size="14" lengthAdjust="spacing" textLength="217" x="812" y="285.9951">GeaflowRemoteFile jarPackage;</text><text fill="#000000" font-family="sans-serif" font-size="14" lengthAdjust="spacing" textLength="121" x="812" y="302.292">String entryClass;</text><line style="stroke:#181818;stroke-width:0.5;" x1="807" x2="1034" y1="309.5938" y2="309.5938"/></g><g id="elem_GeaflowPluginConfig"><rect codeLine="101" fill="#F1F1F1" height="48" id="GeaflowPluginConfig" rx="2.5" ry="2.5" style="stroke:#181818;stroke-width:0.5;" width="173" x="503" y="732.5"/><ellipse cx="518" cy="748.5" fill="#ADD1B2" rx="11" ry="11" style="stroke:#181818;stroke-width:1.0;"/><path d="M520.9688,754.1406 Q520.3906,754.4375 519.75,754.5781 Q519.1094,754.7344 518.4063,754.7344 Q515.9063,754.7344 514.5781,753.0938 Q513.2656,751.4375 513.2656,748.3125 Q513.2656,745.1875 514.5781,743.5313 Q515.9063,741.875 518.4063,741.875 Q519.1094,741.875 519.75,742.0313 Q520.4063,742.1875 520.9688,742.4844 L520.9688,745.2031 Q520.3438,744.625 519.75,744.3594 Q519.1563,744.0781 518.5313,744.0781 Q517.1875,744.0781 516.5,745.1563 Q515.8125,746.2188 515.8125,748.3125 Q515.8125,750.4063 516.5,751.4844 Q517.1875,752.5469 518.5313,752.5469 Q519.1563,752.5469 519.75,752.2813 Q520.3438,752 520.9688,751.4219 L520.9688,754.1406 Z " fill="#000000"/><text fill="#000000" font-family="sans-serif" font-size="14" lengthAdjust="spacing" textLength="141" x="532" y="753.3467">GeaflowPluginConfig</text><line style="stroke:#181818;stroke-width:0.5;" x1="504" x2="675" y1="764.5" y2="764.5"/><line style="stroke:#181818;stroke-width:0.5;" x1="504" x2="675" y1="772.5" y2="772.5"/></g><g id="link_GeaflowStruct_GeaflowVertex"><path d="M414.724,491.939 C397.728,518.022 378.488,547.548 365.535,567.427 " fill="none" id="GeaflowStruct-backto-GeaflowVertex" style="stroke:#181818;stroke-width:1.0;"/><polygon fill="none" points="408.969,487.949,425.752,475.014,420.698,495.592,408.969,487.949" style="stroke:#181818;stroke-width:1.0;"/></g><g id="link_GeaflowStruct_GeaflowEdge"><path d="M350.973,483.741 C311.71,502.582 266.811,524.128 227.679,542.906 " fill="none" id="GeaflowStruct-backto-GeaflowEdge" style="stroke:#181818;stroke-width:1.0;"/><polygon fill="none" points="348.098,477.356,369.158,475.014,354.155,489.978,348.098,477.356" style="stroke:#181818;stroke-width:1.0;"/></g><g id="link_GeaflowStruct_GeaflowTable"><path d="M495.722,490.777 C514.158,513.822 534.885,539.731 550.591,559.364 " fill="none" id="GeaflowStruct-backto-GeaflowTable" style="stroke:#181818;stroke-width:1.0;"/><polygon fill="none" points="490.139,495.004,483.111,475.014,501.071,486.259,490.139,495.004" style="stroke:#181818;stroke-width:1.0;"/></g><g id="link_GeaflowName_GeaflowFunction"><path d="M784.772,150.515 C815.387,178.933 850.85,211.849 877.847,236.909 " fill="none" id="GeaflowName-backto-GeaflowFunction" style="stroke:#181818;stroke-width:1.0;"/><polygon fill="none" points="779.631,155.293,769.734,136.557,789.155,145.032,779.631,155.293" style="stroke:#181818;stroke-width:1.0;"/></g><g id="link_GeaflowName_GeaflowStruct"><path codeLine="83" d="M711.421,156.672 C703.04,207.914 684.846,277.522 645.5,326 C620.931,356.271 585.45,379.413 551.531,396.33 " fill="none" id="GeaflowName-backto-GeaflowStruct" style="stroke:#181818;stroke-width:1.0;"/><polygon fill="none" points="704.53,155.416,714.356,136.642,718.382,157.445,704.53,155.416" style="stroke:#181818;stroke-width:1.0;"/></g><g id="link_GeaflowName_GeaflowGraph"><path codeLine="84" d="M741.884,156.171 C776.543,269.094 826.374,498.473 716.5,640 C651.452,723.787 586.702,668.223 485.5,700 C479.672,701.83 473.738,703.755 467.759,705.746 " fill="none" id="GeaflowName-backto-GeaflowGraph" style="stroke:#181818;stroke-width:1.0;"/><polygon fill="none" points="735.118,157.993,735.737,136.812,748.462,153.756,735.118,157.993" style="stroke:#181818;stroke-width:1.0;"/></g><g id="link_GeaflowFieldType_GeaflowField"><path codeLine="87" d="M432.571,156.361 C403.308,183.389 370.597,213.603 345.299,236.969 " fill="none" id="GeaflowFieldType-backto-GeaflowField" style="stroke:#181818;stroke-width:1.0;"/><polygon fill="#181818" points="436.49,152.741,427.1648,155.9098,432.8172,156.1338,432.5932,161.7862,436.49,152.741" style="stroke:#181818;stroke-width:1.0;"/></g><g id="link_GeaflowName_GeaflowField"><path codeLine="88" d="M636.904,147.609 C624.653,155.296 611.948,162.683 599.5,169 C567.164,185.408 488.976,213.553 420.939,236.929 " fill="none" id="GeaflowName-backto-GeaflowField" style="stroke:#181818;stroke-width:1.0;"/><polygon fill="none" points="633.258,141.63,653.848,136.624,640.874,153.377,633.258,141.63" style="stroke:#181818;stroke-width:1.0;"/></g><g id="link_GeaflowFieldConstraint_GeaflowField"><path codeLine="89" d="M300.32,174.308 C300.787,196.185 301.267,218.68 301.657,236.976 " fill="none" id="GeaflowFieldConstraint-backto-GeaflowField" style="stroke:#181818;stroke-width:1.0;"/><polygon fill="#181818" points="300.208,169.061,296.4018,178.1447,300.3151,174.0599,304.3999,177.9732,300.208,169.061" style="stroke:#181818;stroke-width:1.0;"/></g><g id="link_GeaflowField_GeaflowStruct"><path codeLine="90" d="M349.663,327.562 C366.983,345.579 405.0099,385.1379 405.0099,385.1379 " fill="none" id="GeaflowField-GeaflowStruct" style="stroke:#181818;stroke-width:1.0;"/><polygon fill="none" points="413.326,393.789,412.0516,386.6914,405.0099,385.1379,406.2842,392.2355,413.326,393.789" style="stroke:#181818;stroke-width:1.0;"/><polygon fill="#181818" points="340.485,318.014,343.8384,327.2744,343.9501,321.6186,349.6058,321.7303,340.485,318.014" style="stroke:#181818;stroke-width:1.0;"/><line style="stroke:#181818;stroke-width:1.0;" x1="343.9501" x2="349.494" y1="321.6186" y2="327.386"/><text fill="#000000" font-family="sans-serif" font-size="13" lengthAdjust="spacing" textLength="7" x="338.981" y="337.7761">*</text></g><g id="link_GeaflowStructType_GeaflowStruct"><path codeLine="91" d="M515.207,330.64 C502.397,351.322 487.91,374.713 475.991,393.958 " fill="none" id="GeaflowStructType-backto-GeaflowStruct" style="stroke:#181818;stroke-width:1.0;"/><polygon fill="#181818" points="517.914,326.27,509.7748,331.8156,515.2815,330.5209,516.5762,336.0276,517.914,326.27" style="stroke:#181818;stroke-width:1.0;"/></g><g id="link_GeaflowEdgeDirection_GeaflowEdge"><path codeLine="93" d="M128.5,488.668 C128.5,506.268 128.5,525.732 128.5,542.888 " fill="none" id="GeaflowEdgeDirection-backto-GeaflowEdge" style="stroke:#181818;stroke-width:1.0;"/><polygon fill="#181818" points="128.5,483.27,124.5,492.27,128.5,488.27,132.5,492.27,128.5,483.27" style="stroke:#181818;stroke-width:1.0;"/></g><g id="link_GeaflowEdge_GeaflowVertex"><path codeLine="94" d="M262.34,591.5 C262.34,591.5 268.833,591.5 271.489,591.5 " fill="none" id="GeaflowEdge-GeaflowVertex" style="stroke:#181818;stroke-width:1.0;"/><polygon fill="#181818" points="284.77,591.5,275.77,587.5,279.77,591.5,275.77,595.5,284.77,591.5" style="stroke:#181818;stroke-width:1.0;"/><line style="stroke:#181818;stroke-width:1.0;" x1="279.77" x2="271.77" y1="591.5" y2="591.5"/><polygon fill="none" points="250.34,591.5,256.34,595.5,262.34,591.5,256.34,587.5,250.34,591.5" style="stroke:#181818;stroke-width:1.0;"/></g><g id="link_GeaflowVertex_GeaflowGraph"><path codeLine="95" d="M347.174,628.639 C345.594,645.812 341.7124,687.9814 341.7124,687.9814 " fill="none" id="GeaflowVertex-GeaflowGraph" style="stroke:#181818;stroke-width:1.0;"/><polygon fill="none" points="340.614,699.931,345.1464,694.3223,341.7124,687.9814,337.18,693.59,340.614,699.931" style="stroke:#181818;stroke-width:1.0;"/><polygon fill="#181818" points="348.383,615.508,343.576,624.1041,347.9253,620.487,351.5424,624.8364,348.383,615.508" style="stroke:#181818;stroke-width:1.0;"/><line style="stroke:#181818;stroke-width:1.0;" x1="347.9253" x2="347.191" y1="620.487" y2="628.4535"/><text fill="#000000" font-family="sans-serif" font-size="13" lengthAdjust="spacing" textLength="7" x="339.9436" y="635.6658">*</text></g><g id="link_GeaflowEdge_GeaflowGraph"><path codeLine="96" d="M199.148,648.131 C216.943,662.144 255.34,692.3792 255.34,692.3792 " fill="none" id="GeaflowEdge-GeaflowGraph" style="stroke:#181818;stroke-width:1.0;"/><polygon fill="none" points="264.768,699.803,262.5286,692.9484,255.34,692.3792,257.5794,699.2338,264.768,699.803" style="stroke:#181818;stroke-width:1.0;"/><polygon fill="#181818" points="188.929,640.085,193.5254,648.7955,192.8573,643.1782,198.4746,642.5101,188.929,640.085" style="stroke:#181818;stroke-width:1.0;"/><line style="stroke:#181818;stroke-width:1.0;" x1="192.8573" x2="199.143" y1="643.1782" y2="648.127"/><text fill="#000000" font-family="sans-serif" font-size="13" lengthAdjust="spacing" textLength="7" x="189.9346" y="660.0559">*</text></g><g id="link_GeaflowGraph_GeaflowPluginConfig"><path codeLine="97" d="M467.957,756.5 C477.795,756.5 487.633,756.5 497.471,756.5 " fill="none" id="GeaflowGraph-to-GeaflowPluginConfig" style="stroke:#181818;stroke-width:1.0;"/><polygon fill="#181818" points="502.616,756.5,493.616,752.5,497.616,756.5,493.616,760.5,502.616,756.5" style="stroke:#181818;stroke-width:1.0;"/></g><g id="link_GeaflowGraph_GeaflowEndpoint"><path codeLine="98" d="M335.5,825.139 C335.5,825.139 335.5,848.915 335.5,859.908 " fill="none" id="GeaflowGraph-GeaflowEndpoint" style="stroke:#181818;stroke-width:1.0;"/><polygon fill="#181818" points="335.5,872.9883,339.5,863.9883,335.5,867.9883,331.5,863.9883,335.5,872.9883" style="stroke:#181818;stroke-width:1.0;"/><line style="stroke:#181818;stroke-width:1.0;" x1="335.5" x2="335.5" y1="867.9883" y2="859.988"/><polygon fill="none" points="335.5,813.139,331.5,819.139,335.5,825.139,339.5,819.139,335.5,813.139" style="stroke:#181818;stroke-width:1.0;"/><text fill="#000000" font-family="sans-serif" font-size="13" lengthAdjust="spacing" textLength="7" x="327.9859" y="861.8459">*</text></g><g id="link_GeaflowTable_GeaflowPluginConfig"><path codeLine="100" d="M578.166,623.543 C580.735,653.456 584.589,698.32 587.074,727.255 " fill="none" id="GeaflowTable-to-GeaflowPluginConfig" style="stroke:#181818;stroke-width:1.0;"/><polygon fill="#181818" points="587.522,732.465,590.7358,723.1553,587.0934,727.4834,582.7653,723.841,587.522,732.465" style="stroke:#181818;stroke-width:1.0;"/></g></g></svg>