<?xml version="1.0" encoding="UTF-8" standalone="no"?><svg xmlns="http://www.w3.org/2000/svg" xmlns:xlink="http://www.w3.org/1999/xlink" contentStyleType="text/css" height="933px" preserveAspectRatio="none" style="width:1263px;height:933px;background:#FFFFFF;" version="1.1" viewBox="0 0 1263 933" width="1263px" zoomAndPan="magnify"><defs/><g><g id="elem_GeaflowTaskStatus"><rect codeLine="1" fill="#F1F1F1" height="178.375" id="GeaflowTaskStatus" rx="2.5" ry="2.5" style="stroke:#181818;stroke-width:0.5;" width="164" x="9" y="748"/><ellipse cx="24" cy="764" fill="#EB937F" rx="11" ry="11" style="stroke:#181818;stroke-width:1.0;"/><path d="M28.1094,770 L20.3906,770 L20.3906,757.6094 L28.1094,757.6094 L28.1094,759.7656 L22.8438,759.7656 L22.8438,762.4375 L27.6094,762.4375 L27.6094,764.5938 L22.8438,764.5938 L22.8438,767.8438 L28.1094,767.8438 L28.1094,770 Z " fill="#000000"/><text fill="#000000" font-family="sans-serif" font-size="14" lengthAdjust="spacing" textLength="132" x="38" y="768.8467">GeaflowTaskStatus</text><line style="stroke:#181818;stroke-width:0.5;" x1="10" x2="172" y1="780" y2="780"/><polygon fill="none" points="20,788.6484,24,792.6484,20,796.6484,16,792.6484" style="stroke:#B38D22;stroke-width:1.0;"/><text fill="#000000" font-family="sans-serif" font-size="14" lengthAdjust="spacing" textLength="71" x="29" y="796.9951">CREATED,</text><polygon fill="none" points="20,804.9453,24,808.9453,20,812.9453,16,808.9453" style="stroke:#B38D22;stroke-width:1.0;"/><text fill="#000000" font-family="sans-serif" font-size="14" lengthAdjust="spacing" textLength="62" x="29" y="813.292">WAITING,</text><polygon fill="none" points="20,821.2422,24,825.2422,20,829.2422,16,825.2422" style="stroke:#B38D22;stroke-width:1.0;"/><text fill="#000000" font-family="sans-serif" font-size="14" lengthAdjust="spacing" textLength="74" x="29" y="829.5889">STARTING,</text><polygon fill="none" points="20,837.5391,24,841.5391,20,845.5391,16,841.5391" style="stroke:#B38D22;stroke-width:1.0;"/><text fill="#000000" font-family="sans-serif" font-size="14" lengthAdjust="spacing" textLength="51" x="29" y="845.8857">FAILED,</text><polygon fill="none" points="20,853.8359,24,857.8359,20,861.8359,16,857.8359" style="stroke:#B38D22;stroke-width:1.0;"/><text fill="#000000" font-family="sans-serif" font-size="14" lengthAdjust="spacing" textLength="68" x="29" y="862.1826">RUNNING,</text><polygon fill="none" points="20,870.1328,24,874.1328,20,878.1328,16,874.1328" style="stroke:#B38D22;stroke-width:1.0;"/><text fill="#000000" font-family="sans-serif" font-size="14" lengthAdjust="spacing" textLength="67" x="29" y="878.4795">FINISHED,</text><polygon fill="none" points="20,886.4297,24,890.4297,20,894.4297,16,890.4297" style="stroke:#B38D22;stroke-width:1.0;"/><text fill="#000000" font-family="sans-serif" font-size="14" lengthAdjust="spacing" textLength="71" x="29" y="894.7764">STOPPED,</text><polygon fill="none" points="20,902.7266,24,906.7266,20,910.7266,16,906.7266" style="stroke:#B38D22;stroke-width:1.0;"/><text fill="#000000" font-family="sans-serif" font-size="14" lengthAdjust="spacing" textLength="70" x="29" y="911.0732">DELETED;</text><line style="stroke:#181818;stroke-width:0.5;" x1="10" x2="172" y1="918.375" y2="918.375"/></g><g id="elem_GeaflowJob"><rect codeLine="11" fill="#90EE90" height="129.4844" id="GeaflowJob" rx="2.5" ry="2.5" style="stroke:#181818;stroke-width:0.5;" width="251" x="419.5" y="131"/><ellipse cx="502.75" cy="147" fill="#A9DCDF" rx="11" ry="11" style="stroke:#181818;stroke-width:1.0;"/><path d="M502.8594,142.3438 L501.7031,147.4219 L504.0313,147.4219 L502.8594,142.3438 Z M501.375,140.1094 L504.3594,140.1094 L507.7188,152.5 L505.2656,152.5 L504.5,149.4375 L501.2188,149.4375 L500.4688,152.5 L498.0313,152.5 L501.375,140.1094 Z " fill="#000000"/><text fill="#000000" font-family="sans-serif" font-size="14" font-style="italic" lengthAdjust="spacing" textLength="76" x="523.25" y="151.8467">GeaflowJob</text><line style="stroke:#181818;stroke-width:0.5;" x1="420.5" x2="669.5" y1="163" y2="163"/><text fill="#000000" font-family="sans-serif" font-size="14" lengthAdjust="spacing" textLength="200" x="425.5" y="179.9951">List&lt;GeaflowStruct&gt; structs;</text><text fill="#000000" font-family="sans-serif" font-size="14" lengthAdjust="spacing" textLength="201" x="425.5" y="196.292">List&lt;GeaflowGraph&gt; graphs;</text><text fill="#000000" font-family="sans-serif" font-size="14" lengthAdjust="spacing" textLength="239" x="425.5" y="212.5889">List&lt;GeaflowFunction&gt; functions ;</text><text fill="#000000" font-family="sans-serif" font-size="14" lengthAdjust="spacing" textLength="149" x="425.5" y="228.8857">GeaflowJobType type;</text><text fill="#000000" font-family="sans-serif" font-size="14" lengthAdjust="spacing" textLength="120" x="425.5" y="245.1826">String instanceId;</text><line style="stroke:#181818;stroke-width:0.5;" x1="420.5" x2="669.5" y1="252.4844" y2="252.4844"/></g><g id="elem_GeaflowCodeJob"><rect codeLine="20" fill="#D3D3D3" height="64.2969" id="GeaflowCodeJob" rx="2.5" ry="2.5" style="stroke:#181818;stroke-width:0.5;" width="181" x="468.5" y="361"/><ellipse cx="499.7" cy="377" fill="#A9DCDF" rx="11" ry="11" style="stroke:#181818;stroke-width:1.0;"/><path d="M499.8094,372.3438 L498.6531,377.4219 L500.9813,377.4219 L499.8094,372.3438 Z M498.325,370.1094 L501.3094,370.1094 L504.6688,382.5 L502.2156,382.5 L501.45,379.4375 L498.1688,379.4375 L497.4188,382.5 L494.9813,382.5 L498.325,370.1094 Z " fill="#000000"/><text fill="#000000" font-family="sans-serif" font-size="14" font-style="italic" lengthAdjust="spacing" textLength="113" x="517.3" y="381.8467">GeaflowCodeJob</text><line style="stroke:#181818;stroke-width:0.5;" x1="469.5" x2="648.5" y1="393" y2="393"/><text fill="#000000" font-family="sans-serif" font-size="14" lengthAdjust="spacing" textLength="169" x="474.5" y="409.9951">GeaflowCode userCode;</text><line style="stroke:#181818;stroke-width:0.5;" x1="469.5" x2="648.5" y1="417.2969" y2="417.2969"/></g><g id="elem_GeaflowApiJob"><rect codeLine="24" fill="#D3D3D3" height="80.5938" id="GeaflowApiJob" rx="2.5" ry="2.5" style="stroke:#181818;stroke-width:0.5;" width="229" x="766.5" y="352.5"/><ellipse cx="828.25" cy="368.5" fill="#A9DCDF" rx="11" ry="11" style="stroke:#181818;stroke-width:1.0;"/><path d="M828.3594,363.8438 L827.2031,368.9219 L829.5313,368.9219 L828.3594,363.8438 Z M826.875,361.6094 L829.8594,361.6094 L833.2188,374 L830.7656,374 L830,370.9375 L826.7188,370.9375 L825.9688,374 L823.5313,374 L826.875,361.6094 Z " fill="#000000"/><text fill="#000000" font-family="sans-serif" font-size="14" font-style="italic" lengthAdjust="spacing" textLength="97" x="848.75" y="373.3467">GeaflowApiJob</text><line style="stroke:#181818;stroke-width:0.5;" x1="767.5" x2="994.5" y1="384.5" y2="384.5"/><text fill="#000000" font-family="sans-serif" font-size="14" lengthAdjust="spacing" textLength="217" x="772.5" y="401.4951">GeaflowRemoteFile jarPackage;</text><text fill="#000000" font-family="sans-serif" font-size="14" lengthAdjust="spacing" textLength="121" x="772.5" y="417.792">String entryClass;</text><line style="stroke:#181818;stroke-width:0.5;" x1="767.5" x2="994.5" y1="425.0938" y2="425.0938"/></g><g id="elem_GeaflowProcessJob"><rect codeLine="29" fill="#F1F1F1" height="48" id="GeaflowProcessJob" rx="2.5" ry="2.5" style="stroke:#181818;stroke-width:0.5;" width="164" x="396" y="583"/><ellipse cx="411" cy="599" fill="#ADD1B2" rx="11" ry="11" style="stroke:#181818;stroke-width:1.0;"/><path d="M413.9688,604.6406 Q413.3906,604.9375 412.75,605.0781 Q412.1094,605.2344 411.4063,605.2344 Q408.9063,605.2344 407.5781,603.5938 Q406.2656,601.9375 406.2656,598.8125 Q406.2656,595.6875 407.5781,594.0313 Q408.9063,592.375 411.4063,592.375 Q412.1094,592.375 412.75,592.5313 Q413.4063,592.6875 413.9688,592.9844 L413.9688,595.7031 Q413.3438,595.125 412.75,594.8594 Q412.1563,594.5781 411.5313,594.5781 Q410.1875,594.5781 409.5,595.6563 Q408.8125,596.7188 408.8125,598.8125 Q408.8125,600.9063 409.5,601.9844 Q410.1875,603.0469 411.5313,603.0469 Q412.1563,603.0469 412.75,602.7813 Q413.3438,602.5 413.9688,601.9219 L413.9688,604.6406 Z " fill="#000000"/><text fill="#000000" font-family="sans-serif" font-size="14" lengthAdjust="spacing" textLength="132" x="425" y="603.8467">GeaflowProcessJob</text><line style="stroke:#181818;stroke-width:0.5;" x1="397" x2="559" y1="615" y2="615"/><line style="stroke:#181818;stroke-width:0.5;" x1="397" x2="559" y1="623" y2="623"/></g><g id="elem_GeaflowIntegrateJob"><rect codeLine="30" fill="#F1F1F1" height="48" id="GeaflowIntegrateJob" rx="2.5" ry="2.5" style="stroke:#181818;stroke-width:0.5;" width="170" x="595" y="583"/><ellipse cx="610" cy="599" fill="#ADD1B2" rx="11" ry="11" style="stroke:#181818;stroke-width:1.0;"/><path d="M612.9688,604.6406 Q612.3906,604.9375 611.75,605.0781 Q611.1094,605.2344 610.4063,605.2344 Q607.9063,605.2344 606.5781,603.5938 Q605.2656,601.9375 605.2656,598.8125 Q605.2656,595.6875 606.5781,594.0313 Q607.9063,592.375 610.4063,592.375 Q611.1094,592.375 611.75,592.5313 Q612.4063,592.6875 612.9688,592.9844 L612.9688,595.7031 Q612.3438,595.125 611.75,594.8594 Q611.1563,594.5781 610.5313,594.5781 Q609.1875,594.5781 608.5,595.6563 Q607.8125,596.7188 607.8125,598.8125 Q607.8125,600.9063 608.5,601.9844 Q609.1875,603.0469 610.5313,603.0469 Q611.1563,603.0469 611.75,602.7813 Q612.3438,602.5 612.9688,601.9219 L612.9688,604.6406 Z " fill="#000000"/><text fill="#000000" font-family="sans-serif" font-size="14" lengthAdjust="spacing" textLength="138" x="624" y="603.8467">GeaflowIntegrateJob</text><line style="stroke:#181818;stroke-width:0.5;" x1="596" x2="764" y1="615" y2="615"/><line style="stroke:#181818;stroke-width:0.5;" x1="596" x2="764" y1="623" y2="623"/></g><g id="elem_GeaflowCustomJob"><rect codeLine="32" fill="#F1F1F1" height="48" id="GeaflowCustomJob" rx="2.5" ry="2.5" style="stroke:#181818;stroke-width:0.5;" width="162" x="800" y="583"/><ellipse cx="815" cy="599" fill="#ADD1B2" rx="11" ry="11" style="stroke:#181818;stroke-width:1.0;"/><path d="M817.9688,604.6406 Q817.3906,604.9375 816.75,605.0781 Q816.1094,605.2344 815.4063,605.2344 Q812.9063,605.2344 811.5781,603.5938 Q810.2656,601.9375 810.2656,598.8125 Q810.2656,595.6875 811.5781,594.0313 Q812.9063,592.375 815.4063,592.375 Q816.1094,592.375 816.75,592.5313 Q817.4063,592.6875 817.9688,592.9844 L817.9688,595.7031 Q817.3438,595.125 816.75,594.8594 Q816.1563,594.5781 815.5313,594.5781 Q814.1875,594.5781 813.5,595.6563 Q812.8125,596.7188 812.8125,598.8125 Q812.8125,600.9063 813.5,601.9844 Q814.1875,603.0469 815.5313,603.0469 Q816.1563,603.0469 816.75,602.7813 Q817.3438,602.5 817.9688,601.9219 L817.9688,604.6406 Z " fill="#000000"/><text fill="#000000" font-family="sans-serif" font-size="14" lengthAdjust="spacing" textLength="130" x="829" y="603.8467">GeaflowCustomJob</text><line style="stroke:#181818;stroke-width:0.5;" x1="801" x2="961" y1="615" y2="615"/><line style="stroke:#181818;stroke-width:0.5;" x1="801" x2="961" y1="623" y2="623"/></g><g id="elem_GeaflowAnalysisJob"><rect codeLine="33" fill="#D3D3D3" height="48" id="GeaflowAnalysisJob" rx="2.5" ry="2.5" style="stroke:#181818;stroke-width:0.5;" width="163" x="997.5" y="583"/><ellipse cx="1012.5" cy="599" fill="#A9DCDF" rx="11" ry="11" style="stroke:#181818;stroke-width:1.0;"/><path d="M1012.6094,594.3438 L1011.4531,599.4219 L1013.7813,599.4219 L1012.6094,594.3438 Z M1011.125,592.1094 L1014.1094,592.1094 L1017.4688,604.5 L1015.0156,604.5 L1014.25,601.4375 L1010.9688,601.4375 L1010.2188,604.5 L1007.7813,604.5 L1011.125,592.1094 Z " fill="#000000"/><text fill="#000000" font-family="sans-serif" font-size="14" font-style="italic" lengthAdjust="spacing" textLength="131" x="1026.5" y="603.8467">GeaflowAnalysisJob</text><line style="stroke:#181818;stroke-width:0.5;" x1="998.5" x2="1159.5" y1="615" y2="615"/><line style="stroke:#181818;stroke-width:0.5;" x1="998.5" x2="1159.5" y1="623" y2="623"/></g><g id="elem_GeaflowServerJob"><rect codeLine="34" fill="#F1F1F1" height="48" id="GeaflowServerJob" rx="2.5" ry="2.5" style="stroke:#181818;stroke-width:0.5;" width="152" x="907" y="813"/><ellipse cx="922" cy="829" fill="#ADD1B2" rx="11" ry="11" style="stroke:#181818;stroke-width:1.0;"/><path d="M924.9688,834.6406 Q924.3906,834.9375 923.75,835.0781 Q923.1094,835.2344 922.4063,835.2344 Q919.9063,835.2344 918.5781,833.5938 Q917.2656,831.9375 917.2656,828.8125 Q917.2656,825.6875 918.5781,824.0313 Q919.9063,822.375 922.4063,822.375 Q923.1094,822.375 923.75,822.5313 Q924.4063,822.6875 924.9688,822.9844 L924.9688,825.7031 Q924.3438,825.125 923.75,824.8594 Q923.1563,824.5781 922.5313,824.5781 Q921.1875,824.5781 920.5,825.6563 Q919.8125,826.7188 919.8125,828.8125 Q919.8125,830.9063 920.5,831.9844 Q921.1875,833.0469 922.5313,833.0469 Q923.1563,833.0469 923.75,832.7813 Q924.3438,832.5 924.9688,831.9219 L924.9688,834.6406 Z " fill="#000000"/><text fill="#000000" font-family="sans-serif" font-size="14" lengthAdjust="spacing" textLength="120" x="936" y="833.8467">GeaflowServerJob</text><line style="stroke:#181818;stroke-width:0.5;" x1="908" x2="1058" y1="845" y2="845"/><line style="stroke:#181818;stroke-width:0.5;" x1="908" x2="1058" y1="853" y2="853"/></g><g id="elem_GeaflowStatisticJob"><rect codeLine="35" fill="#F1F1F1" height="48" id="GeaflowStatisticJob" rx="2.5" ry="2.5" style="stroke:#181818;stroke-width:0.5;" width="162" x="1094" y="813"/><ellipse cx="1109" cy="829" fill="#ADD1B2" rx="11" ry="11" style="stroke:#181818;stroke-width:1.0;"/><path d="M1111.9688,834.6406 Q1111.3906,834.9375 1110.75,835.0781 Q1110.1094,835.2344 1109.4063,835.2344 Q1106.9063,835.2344 1105.5781,833.5938 Q1104.2656,831.9375 1104.2656,828.8125 Q1104.2656,825.6875 1105.5781,824.0313 Q1106.9063,822.375 1109.4063,822.375 Q1110.1094,822.375 1110.75,822.5313 Q1111.4063,822.6875 1111.9688,822.9844 L1111.9688,825.7031 Q1111.3438,825.125 1110.75,824.8594 Q1110.1563,824.5781 1109.5313,824.5781 Q1108.1875,824.5781 1107.5,825.6563 Q1106.8125,826.7188 1106.8125,828.8125 Q1106.8125,830.9063 1107.5,831.9844 Q1108.1875,833.0469 1109.5313,833.0469 Q1110.1563,833.0469 1110.75,832.7813 Q1111.3438,832.5 1111.9688,831.9219 L1111.9688,834.6406 Z " fill="#000000"/><text fill="#000000" font-family="sans-serif" font-size="14" lengthAdjust="spacing" textLength="130" x="1123" y="833.8467">GeaflowStatisticJob</text><line style="stroke:#181818;stroke-width:0.5;" x1="1095" x2="1255" y1="845" y2="845"/><line style="stroke:#181818;stroke-width:0.5;" x1="1095" x2="1255" y1="853" y2="853"/></g><g id="elem_GeaflowTask"><rect codeLine="36" fill="#90EE90" height="162.0781" id="GeaflowTask" rx="2.5" ry="2.5" style="stroke:#181818;stroke-width:0.5;" width="335" x="25.5" y="526"/><ellipse cx="144.75" cy="542" fill="#ADD1B2" rx="11" ry="11" style="stroke:#181818;stroke-width:1.0;"/><path d="M147.7188,547.6406 Q147.1406,547.9375 146.5,548.0781 Q145.8594,548.2344 145.1563,548.2344 Q142.6563,548.2344 141.3281,546.5938 Q140.0156,544.9375 140.0156,541.8125 Q140.0156,538.6875 141.3281,537.0313 Q142.6563,535.375 145.1563,535.375 Q145.8594,535.375 146.5,535.5313 Q147.1563,535.6875 147.7188,535.9844 L147.7188,538.7031 Q147.0938,538.125 146.5,537.8594 Q145.9063,537.5781 145.2813,537.5781 Q143.9375,537.5781 143.25,538.6563 Q142.5625,539.7188 142.5625,541.8125 Q142.5625,543.9063 143.25,544.9844 Q143.9375,546.0469 145.2813,546.0469 Q145.9063,546.0469 146.5,545.7813 Q147.0938,545.5 147.7188,544.9219 L147.7188,547.6406 Z " fill="#000000"/><text fill="#000000" font-family="sans-serif" font-size="14" lengthAdjust="spacing" textLength="88" x="165.25" y="546.8467">GeaflowTask</text><line style="stroke:#181818;stroke-width:0.5;" x1="26.5" x2="359.5" y1="558" y2="558"/><text fill="#000000" font-family="sans-serif" font-size="14" lengthAdjust="spacing" textLength="171" x="31.5" y="574.9951">GeaflowRelease release;</text><text fill="#000000" font-family="sans-serif" font-size="14" lengthAdjust="spacing" textLength="161" x="31.5" y="591.292">GeaflowTaskType type;</text><text fill="#000000" font-family="sans-serif" font-size="14" lengthAdjust="spacing" textLength="184" x="31.5" y="607.5889">GeaflowTaskStatus status;</text><line style="stroke:#181818;stroke-width:1.0;" x1="26.5" x2="359.5" y1="614.8906" y2="614.8906"/><text fill="#000000" font-family="sans-serif" font-size="14" lengthAdjust="spacing" textLength="323" x="31.5" y="631.8857">GeaflowPluginConfig runtimeMetaPluginConfig;</text><text fill="#000000" font-family="sans-serif" font-size="14" lengthAdjust="spacing" textLength="287" x="31.5" y="648.1826">GeaflowPluginConfig haMetaPluginConfig;</text><text fill="#000000" font-family="sans-serif" font-size="14" lengthAdjust="spacing" textLength="279" x="31.5" y="664.4795">GeaflowPluginConfig metricPluginConfig;</text><text fill="#000000" font-family="sans-serif" font-size="14" lengthAdjust="spacing" textLength="266" x="31.5" y="680.7764">GeaflowPluginConfig dataPluginConfig;</text></g><g id="elem_GeaflowRelease"><rect codeLine="47" fill="#90EE90" height="145.7813" id="GeaflowRelease" rx="2.5" ry="2.5" style="stroke:#181818;stroke-width:0.5;" width="215" x="218.5" y="320"/><ellipse cx="266.25" cy="336" fill="#ADD1B2" rx="11" ry="11" style="stroke:#181818;stroke-width:1.0;"/><path d="M269.2188,341.6406 Q268.6406,341.9375 268,342.0781 Q267.3594,342.2344 266.6563,342.2344 Q264.1563,342.2344 262.8281,340.5938 Q261.5156,338.9375 261.5156,335.8125 Q261.5156,332.6875 262.8281,331.0313 Q264.1563,329.375 266.6563,329.375 Q267.3594,329.375 268,329.5313 Q268.6563,329.6875 269.2188,329.9844 L269.2188,332.7031 Q268.5938,332.125 268,331.8594 Q267.4063,331.5781 266.7813,331.5781 Q265.4375,331.5781 264.75,332.6563 Q264.0625,333.7188 264.0625,335.8125 Q264.0625,337.9063 264.75,338.9844 Q265.4375,340.0469 266.7813,340.0469 Q267.4063,340.0469 268,339.7813 Q268.5938,339.5 269.2188,338.9219 L269.2188,341.6406 Z " fill="#000000"/><text fill="#000000" font-family="sans-serif" font-size="14" lengthAdjust="spacing" textLength="111" x="286.75" y="340.8467">GeaflowRelease</text><line style="stroke:#181818;stroke-width:0.5;" x1="219.5" x2="432.5" y1="352" y2="352"/><text fill="#000000" font-family="sans-serif" font-size="14" lengthAdjust="spacing" textLength="173" x="224.5" y="368.9951">GeaflowConfig jobConfig;</text><text fill="#000000" font-family="sans-serif" font-size="14" lengthAdjust="spacing" textLength="203" x="224.5" y="385.292">GeaflowConfig clusterConfig ;</text><text fill="#000000" font-family="sans-serif" font-size="14" lengthAdjust="spacing" textLength="106" x="224.5" y="401.5889">GeaflowJob job;</text><text fill="#000000" font-family="sans-serif" font-size="14" lengthAdjust="spacing" textLength="166" x="224.5" y="417.8857">GeaflowVersion version;</text><text fill="#000000" font-family="sans-serif" font-size="14" lengthAdjust="spacing" textLength="109" x="224.5" y="434.1826">JobPlan jobPlan;</text><text fill="#000000" font-family="sans-serif" font-size="14" lengthAdjust="spacing" textLength="160" x="224.5" y="450.4795">GeaflowCluster cluster;</text><line style="stroke:#181818;stroke-width:0.5;" x1="219.5" x2="432.5" y1="457.7813" y2="457.7813"/></g><g id="elem_GeaflowBuildPipeline"><rect codeLine="56" fill="#F1F1F1" height="64.2969" id="GeaflowBuildPipeline" rx="2.5" ry="2.5" style="stroke:#181818;stroke-width:0.5;" width="271" x="313.5" y="7"/><ellipse cx="373.25" cy="23" fill="#ADD1B2" rx="11" ry="11" style="stroke:#181818;stroke-width:1.0;"/><path d="M376.2188,28.6406 Q375.6406,28.9375 375,29.0781 Q374.3594,29.2344 373.6563,29.2344 Q371.1563,29.2344 369.8281,27.5938 Q368.5156,25.9375 368.5156,22.8125 Q368.5156,19.6875 369.8281,18.0313 Q371.1563,16.375 373.6563,16.375 Q374.3594,16.375 375,16.5313 Q375.6563,16.6875 376.2188,16.9844 L376.2188,19.7031 Q375.5938,19.125 375,18.8594 Q374.4063,18.5781 373.7813,18.5781 Q372.4375,18.5781 371.75,19.6563 Q371.0625,20.7188 371.0625,22.8125 Q371.0625,24.9063 371.75,25.9844 Q372.4375,27.0469 373.7813,27.0469 Q374.4063,27.0469 375,26.7813 Q375.5938,26.5 376.2188,25.9219 L376.2188,28.6406 Z " fill="#000000"/><text fill="#000000" font-family="sans-serif" font-size="14" lengthAdjust="spacing" textLength="143" x="393.75" y="27.8467">GeaflowBuildPipeline</text><line style="stroke:#181818;stroke-width:0.5;" x1="314.5" x2="583.5" y1="39" y2="39"/><line style="stroke:#181818;stroke-width:0.5;" x1="314.5" x2="583.5" y1="47" y2="47"/><text fill="#000000" font-family="sans-serif" font-size="14" lengthAdjust="spacing" textLength="259" x="319.5" y="63.9951">GeaflowRelease build(GeaflowJob job)</text></g><g id="elem_GeaflowPluginConfig"><rect fill="#F1F1F1" height="48" id="GeaflowPluginConfig" rx="2.5" ry="2.5" style="stroke:#181818;stroke-width:0.5;" width="173" x="208.5" y="813"/><ellipse cx="223.5" cy="829" fill="#ADD1B2" rx="11" ry="11" style="stroke:#181818;stroke-width:1.0;"/><path d="M226.4688,834.6406 Q225.8906,834.9375 225.25,835.0781 Q224.6094,835.2344 223.9063,835.2344 Q221.4063,835.2344 220.0781,833.5938 Q218.7656,831.9375 218.7656,828.8125 Q218.7656,825.6875 220.0781,824.0313 Q221.4063,822.375 223.9063,822.375 Q224.6094,822.375 225.25,822.5313 Q225.9063,822.6875 226.4688,822.9844 L226.4688,825.7031 Q225.8438,825.125 225.25,824.8594 Q224.6563,824.5781 224.0313,824.5781 Q222.6875,824.5781 222,825.6563 Q221.3125,826.7188 221.3125,828.8125 Q221.3125,830.9063 222,831.9844 Q222.6875,833.0469 224.0313,833.0469 Q224.6563,833.0469 225.25,832.7813 Q225.8438,832.5 226.4688,831.9219 L226.4688,834.6406 Z " fill="#000000"/><text fill="#000000" font-family="sans-serif" font-size="14" lengthAdjust="spacing" textLength="141" x="237.5" y="833.8467">GeaflowPluginConfig</text><line style="stroke:#181818;stroke-width:0.5;" x1="209.5" x2="380.5" y1="845" y2="845"/><line style="stroke:#181818;stroke-width:0.5;" x1="209.5" x2="380.5" y1="853" y2="853"/></g><g id="link_GeaflowJob_GeaflowCodeJob"><path d="M551.022,280.591 C553.065,309.115 555.221,339.222 556.776,360.938 " fill="none" id="GeaflowJob-backto-GeaflowCodeJob" style="stroke:#181818;stroke-width:1.0;"/><polygon fill="none" points="544.011,280.692,549.565,260.243,557.976,279.692,544.011,280.692" style="stroke:#181818;stroke-width:1.0;"/></g><g id="link_GeaflowJob_GeaflowApiJob"><path d="M671.922,270.349 C719.729,298.166 772.265,328.733 812.714,352.268 " fill="none" id="GeaflowJob-backto-GeaflowApiJob" style="stroke:#181818;stroke-width:1.0;"/><polygon fill="none" points="668.32,276.352,654.554,260.243,675.361,264.251,668.32,276.352" style="stroke:#181818;stroke-width:1.0;"/></g><g id="link_GeaflowCodeJob_GeaflowProcessJob"><path d="M539.898,443.995 C523.148,487.834 499.548,549.602 486.875,582.772 " fill="none" id="GeaflowCodeJob-backto-GeaflowProcessJob" style="stroke:#181818;stroke-width:1.0;"/><polygon fill="none" points="533.371,441.466,547.048,425.281,546.449,446.463,533.371,441.466" style="stroke:#181818;stroke-width:1.0;"/></g><g id="link_GeaflowCodeJob_GeaflowIntegrateJob"><path d="M586.861,442.814 C611.919,486.718 647.64,549.303 666.743,582.772 " fill="none" id="GeaflowCodeJob-backto-GeaflowIntegrateJob" style="stroke:#181818;stroke-width:1.0;"/><polygon fill="none" points="580.689,446.121,576.854,425.281,592.847,439.181,580.689,446.121" style="stroke:#181818;stroke-width:1.0;"/></g><g id="link_GeaflowApiJob_GeaflowCustomJob"><path d="M881,454.078 C881,496.988 881,552.343 881,582.996 " fill="none" id="GeaflowApiJob-backto-GeaflowCustomJob" style="stroke:#181818;stroke-width:1.0;"/><polygon fill="none" points="874,453.876,881,433.876,888,453.876,874,453.876" style="stroke:#181818;stroke-width:1.0;"/></g><g id="link_GeaflowApiJob_GeaflowAnalysisJob"><path d="M931.975,448.58 C972.668,492.15 1027.65,551.016 1057.51,582.996 " fill="none" id="GeaflowApiJob-backto-GeaflowAnalysisJob" style="stroke:#181818;stroke-width:1.0;"/><polygon fill="none" points="926.778,453.27,918.242,433.876,937.009,443.714,926.778,453.27" style="stroke:#181818;stroke-width:1.0;"/></g><g id="link_GeaflowAnalysisJob_GeaflowServerJob"><path d="M1061.45,649.677 C1041.28,697.592 1008.876,774.544 992.759,812.822 " fill="none" id="GeaflowAnalysisJob-backto-GeaflowServerJob" style="stroke:#181818;stroke-width:1.0;"/><polygon fill="none" points="1055.05,646.833,1069.27,631.117,1067.96,652.266,1055.05,646.833" style="stroke:#181818;stroke-width:1.0;"/></g><g id="link_GeaflowAnalysisJob_GeaflowStatisticJob"><path d="M1096.55,649.677 C1116.72,697.592 1149.12,774.544 1165.24,812.822 " fill="none" id="GeaflowAnalysisJob-backto-GeaflowStatisticJob" style="stroke:#181818;stroke-width:1.0;"/><polygon fill="none" points="1090.04,652.266,1088.73,631.117,1102.95,646.833,1090.04,652.266" style="stroke:#181818;stroke-width:1.0;"/></g><g id="link_GeaflowTask_GeaflowTaskStatus"><path codeLine="59" d="M157.182,688.064 C149.191,705.925 140.654,725.01 132.457,743.332 " fill="none" id="GeaflowTask-to-GeaflowTaskStatus" style="stroke:#181818;stroke-width:1.0;"/><polygon fill="#181818" points="130.381,747.972,137.7087,741.3914,132.4236,743.4083,130.4067,738.1232,130.381,747.972" style="stroke:#181818;stroke-width:1.0;"/></g><g id="link_GeaflowRelease_GeaflowTask"><path codeLine="60" d="M273.621,477.491 C265.99,489.655 249.7179,515.5916 249.7179,515.5916 " fill="none" id="GeaflowRelease-GeaflowTask" style="stroke:#181818;stroke-width:1.0;"/><polygon fill="none" points="243.341,525.757,249.9179,522.8,249.7179,515.5916,243.141,518.5487,243.341,525.757" style="stroke:#181818;stroke-width:1.0;"/><polygon fill="#181818" points="280.787,466.069,272.6155,471.5669,278.1297,470.3044,279.3922,475.8186,280.787,466.069" style="stroke:#181818;stroke-width:1.0;"/><line style="stroke:#181818;stroke-width:1.0;" x1="278.1297" x2="273.878" y1="470.3044" y2="477.082"/></g><g id="link_GeaflowJob_GeaflowRelease"><path codeLine="61" d="M463.699,269.077 C448.452,282.688 415.7493,311.882 415.7493,311.882 " fill="none" id="GeaflowJob-GeaflowRelease" style="stroke:#181818;stroke-width:1.0;"/><polygon fill="none" points="406.797,319.873,413.9368,318.8616,415.7493,311.882,408.6095,312.8934,406.797,319.873" style="stroke:#181818;stroke-width:1.0;"/><polygon fill="#181818" points="473.594,260.243,464.2163,263.2528,469.8641,263.5729,469.5441,269.2207,473.594,260.243" style="stroke:#181818;stroke-width:1.0;"/><line style="stroke:#181818;stroke-width:1.0;" x1="469.8641" x2="463.896" y1="263.5729" y2="268.901"/></g><g id="link_GeaflowTask_GeaflowPluginConfig"><path codeLine="62" d="M228.818,688.064 C247.562,729.962 269.316,778.589 282.617,808.321 " fill="none" id="GeaflowTask-to-GeaflowPluginConfig" style="stroke:#181818;stroke-width:1.0;"/><polygon fill="#181818" points="284.678,812.926,284.6549,803.0772,282.6366,808.3617,277.352,806.3434,284.678,812.926" style="stroke:#181818;stroke-width:1.0;"/><text fill="#000000" font-family="sans-serif" font-size="13" lengthAdjust="spacing" textLength="7" x="274.1361" y="801.9191">*</text></g><g id="link_GeaflowBuildPipeline_GeaflowJob"><path codeLine="64" d="M468.427,71.265 C478.309,87.168 490.73,107.16 502.676,126.385 " fill="none" id="GeaflowBuildPipeline-to-GeaflowJob" style="stroke:#181818;stroke-width:1.0;stroke-dasharray:7.0,7.0;"/><polygon fill="#181818" points="505.377,130.732,504.0253,120.9763,502.7384,126.4849,497.2299,125.198,505.377,130.732" style="stroke:#181818;stroke-width:1.0;"/></g><g id="link_GeaflowBuildPipeline_GeaflowRelease"><path codeLine="65" d="M430.923,71.301 C421.462,88.534 410.179,110.524 402,131 C377.916,191.289 357.77,262.149 344.285,314.81 " fill="none" id="GeaflowBuildPipeline-to-GeaflowRelease" style="stroke:#181818;stroke-width:1.0;stroke-dasharray:7.0,7.0;"/><polygon fill="#181818" points="343.001,319.849,349.1014,312.1169,344.2369,315.0041,341.3497,310.1396,343.001,319.849" style="stroke:#181818;stroke-width:1.0;"/></g></g></svg>