<?xml version="1.0" encoding="UTF-8"?>
<svg width="122px" height="24px" viewBox="0 0 122 24" version="1.1" xmlns="http://www.w3.org/2000/svg" xmlns:xlink="http://www.w3.org/1999/xlink">
    <title>形状</title>
    <defs>
        <linearGradient x1="0%" y1="50.0046172%" x2="99.9981861%" y2="50.0046172%" id="linearGradient-1">
            <stop stop-color="#1650FF" offset="0%"></stop>
            <stop stop-color="#1659FF" offset="17.9059222%"></stop>
            <stop stop-color="#1671FF" offset="44%"></stop>
            <stop stop-color="#1677FF" offset="50%"></stop>
            <stop stop-color="#1680FF" offset="58%"></stop>
            <stop stop-color="#1698FF" offset="72%"></stop>
            <stop stop-color="#16C0FF" offset="89%"></stop>
            <stop stop-color="#16DEFF" offset="100%"></stop>
        </linearGradient>
    </defs>
    <g id="页面-1" stroke="none" stroke-width="1" fill="none" fill-rule="evenodd">
        <g id="01.首页" transform="translate(-120.000000, -20.000000)" fill="url(#linearGradient-1)" fill-rule="nonzero">
            <path d="M149.107475,25.141749 L148.748971,26.710869 L148.611765,27.3136947 L148.326289,28.5415089 L148.326289,28.5415089 L146.693102,35.6557392 L142.289249,35.6557392 C141.721248,35.6557392 141.310369,35.479915 141.056613,35.1282667 C140.806545,34.7847447 140.75122,34.3015976 140.883999,33.692123 C140.883168,33.6810573 140.883168,33.6699447 140.883999,33.6588789 L142.065737,28.5415089 L142.849136,25.141749 L139.069346,25.141749 L138.285948,28.5415089 L137.097571,33.6854742 C137.075441,33.7785576 137.057737,33.8649922 137.03782,33.953643 C136.918542,34.5133433 136.854793,35.08348 136.847503,35.6557392 C136.847503,36.6308985 137.095358,37.3910795 137.571151,37.9407147 C137.931782,38.3596601 138.40734,38.6632971 138.93878,38.8139256 C139.177816,38.8799502 139.421073,38.9295621 139.666854,38.9624157 C140.240395,39.0303537 140.817692,39.0614451 141.3952,39.0554991 L149.687279,39.0554991 L150.472891,35.6557392 L152.112717,28.5415089 L152.896116,25.141749 L149.107475,25.141749 Z M180.943569,25.141749 C178.905404,25.141749 176.814127,27.0144981 176.283009,29.3172038 L174.039036,39.0599317 L177.825464,39.0599317 L179.675525,31.0215163 C179.750766,30.700157 180.3527,28.5149137 182.539135,28.5481577 L185.821002,28.5481577 L186.61104,25.141749 L180.943569,25.141749 Z M162.489434,27.9231693 L161.708248,31.3162804 L173.25785,31.3162804 L174.041249,27.9231693 L162.489434,27.9231693 Z M121.343286,20 L120,25.8287931 L129.976165,20 L121.343286,20 Z M133.424006,20 C131.622631,20 129.779209,21.4649552 129.011301,23.3997599 C128.913335,23.6492854 128.833461,23.9055596 128.772298,24.1665897 L125.339948,39.0599317 L129.124163,39.0599317 L132.171452,25.8686859 C132.253333,25.5384615 132.83535,23.3997599 134.977525,23.3997599 L139.009596,23.3997599 L139.799634,20 L133.424006,20 Z M161.108527,24.5145443 C162.039459,23.7757872 163.351025,23.4064087 165.043226,23.4064087 L172.890493,23.4064087 L173.680531,20 L165.366323,20 C163.425529,20 161.785703,20.2792502 160.437991,20.8266691 C159.076985,21.3984995 157.880349,22.3020678 156.956956,23.4551667 C155.629161,25.0952073 154.682,27.1437806 154.115475,29.6008865 C153.245031,33.3685474 153.631567,36.0280728 155.275082,37.5794626 C155.860011,38.1362071 156.576553,38.5350455 157.357507,38.7385724 C158.174838,38.9528119 159.315267,39.0599317 160.778792,39.0599317 L170.352192,39.0599317 L171.80834,32.743559 L168.021912,32.743559 L167.358015,35.6601718 L161.825536,35.6601718 C161.052902,35.681077 160.281525,35.5854458 159.537303,35.3764891 C159.012393,35.234422 158.555069,34.9099713 158.247129,34.4611691 C157.93436,34.0016622 157.76691,33.3064918 157.74478,32.375658 C157.738236,31.3161229 157.862365,30.2598332 158.11435,29.2307692 C158.550906,27.3647287 159.606447,25.7021118 161.108527,24.5145443 Z M217.566363,28.5415089 C216.579368,25.2835904 212.828348,25.141749 212.188794,25.141749 L205.129351,25.141749 L204.345952,28.5415089 L203.593535,31.80386 L211.456293,30.0308431 C211.456293,29.964355 211.456293,29.8978668 211.456293,29.8313787 C211.457212,29.604079 211.499197,29.3788219 211.580221,29.1664974 L209.77442,28.2356635 C209.422849,28.6768434 208.804694,28.7995312 208.311686,28.5259783 C207.818679,28.2524254 207.594759,27.6624994 207.781828,27.1300428 C207.968897,26.5975861 208.512336,26.278057 209.067763,26.3739444 C209.62319,26.4698318 210.02844,26.9531401 210.026701,27.5175917 C210.027092,27.6256916 210.01143,27.7332488 209.980228,27.8367347 L211.783816,28.7675686 C212.28968,27.9987391 213.269014,27.6973373 214.118697,28.0489808 C214.96838,28.4006243 215.44957,29.3064676 215.265927,30.208649 C215.082285,31.1108304 214.28543,31.7557507 213.366105,31.746237 L213.319632,31.746237 L212.901377,34.7049589 C213.312537,34.8762898 213.532589,35.3268544 213.415224,35.7570785 C213.297859,36.1873026 212.879621,36.4632255 212.438591,36.4013898 C211.997561,36.339554 211.671064,35.9592138 211.676184,35.513252 C211.681303,35.0672903 212.016445,34.6945681 212.458779,34.6429033 L212.877034,31.6886139 C212.552752,31.6039076 212.256554,31.4349469 212.018393,31.198818 L205.211232,36.6331148 C205.249388,36.7251306 205.268945,36.8238113 205.26877,36.9234463 C205.268909,37.2812972 205.02526,37.59308 204.678376,37.6789382 C204.331491,37.7647964 203.970868,37.6025784 203.804537,37.2858621 C203.638207,36.9691459 203.709081,36.5796446 203.976277,36.342048 C204.243472,36.1044514 204.638051,36.0800599 204.932395,36.2829439 L211.737343,30.8464309 C211.663939,30.7278264 211.603824,30.6014733 211.558091,30.4696648 L203.482886,32.2914397 L202.706126,35.6557392 L201.922727,39.0599317 L200.774184,44 L204.558399,44 L205.706942,39.0599317 L209.657131,39.0599317 C212.259078,39.0165654 214.691627,37.7591425 216.234142,35.6601718 C216.778428,34.9229601 217.155996,34.0759536 217.340637,33.1779481 C217.913802,31.1722227 217.902737,29.6718072 217.566363,28.5415089 Z M201.477915,28.5415089 C201.035317,25.3811063 197.906147,25.2171022 197.906147,25.2171022 C197.478302,25.1683443 196.685314,25.1439653 195.527182,25.1439653 L189.366214,25.1439653 L188.582815,28.5437252 L195.144334,28.5437252 C196.303942,28.5437252 197.041605,28.7158556 197.357326,29.0601164 C197.669357,29.4014221 197.846397,29.629698 197.620672,30.6115061 L189.596365,30.6115061 C189.067986,30.6145127 188.544033,30.7082145 188.047271,30.88854 C186.332203,31.4980146 184.871628,33.0494044 184.490994,34.844584 C184.434013,35.1151358 184.402158,35.3903886 184.395835,35.6668206 L184.395835,35.7177948 C184.361205,36.9974787 185.084177,38.1769818 186.239257,38.7252747 C186.730625,38.9507669 187.26558,39.0650294 187.806055,39.0599317 L191.641169,39.0599317 L191.641169,39.0599317 L199.490649,39.0599317 L200.274048,35.6601718 L200.918029,32.8721027 L190.373125,35.2435128 C190.374301,35.2641812 190.374301,35.2849 190.373125,35.3055684 C190.372216,35.9731501 189.866092,36.5313069 189.202669,36.5963533 C188.539247,36.6613998 187.934641,36.2121465 187.804467,35.557417 C187.674294,34.9026874 188.060957,34.2557651 188.69866,34.0613541 C189.336362,33.866943 190.017366,34.1883742 190.27354,34.8046911 L201.0154,32.384523 L201.283172,31.2298458 C201.303089,31.1345461 201.323006,31.043679 201.345136,30.9550282 C201.344101,30.9447116 201.344101,30.934317 201.345136,30.9240004 C201.524638,30.1432167 201.569545,29.3374479 201.477915,28.5415089 Z M235.157431,20 L235.157431,20.5939607 L236.157703,20.5939607 L236.157703,23.3931111 L236.845943,23.3931111 L236.845943,20.5939607 L237.846215,20.5939607 L237.846215,20 L235.157431,20 Z M229.403653,25.1616954 C229.058427,25.141749 228.830488,25.141749 228.830488,25.141749 L224.89579,25.141749 L226.086379,20 L222.299951,20 L217.909376,39.0599317 L221.691378,39.0599317 L224.125669,28.5481577 L227.274756,28.5481577 C228.334778,28.5658879 229.007528,28.7697848 229.29743,29.1753625 C229.45548,29.4169386 229.532961,29.7024888 229.518729,29.9909502 C229.486637,30.525706 229.404394,31.0562537 229.273087,31.5755841 L227.551379,39.0599317 L231.331169,39.0599317 L233.322861,30.4031767 C234.340837,25.983932 230.822181,25.2702927 229.399227,25.1616954 L229.403653,25.1616954 Z M240.946616,20 L240.205264,21.9481023 L240.16543,21.9481023 L239.439569,20 L238.364055,20 L238.364055,23.3908948 L239.027953,23.3908948 L239.027953,20.6759627 L239.058934,20.6759627 L239.82463,22.7393111 L240.523935,22.7393111 L241.291843,20.6759627 L241.322825,20.6759627 L241.322825,23.3997599 L242,23.3997599 L242,20 L240.946616,20 Z" id="形状"></path>
        </g>
    </g>
</svg>